<svg id="svg" version="1.1" xmlns="http://www.w3.org/2000/svg" xmlns:xlink="http://www.w3.org/1999/xlink" width="400" height="400" viewBox="0, 0, 400,400"><g id="svgg"><path id="path0" d="M246.481 128.107 C 245.667 128.483,244.649 129.188,244.219 129.673 C 243.235 130.785,221.753 161.013,221.175 162.099 C 220.940 162.540,214.057 172.290,205.878 183.765 C 197.700 195.241,190.784 204.971,190.510 205.389 C 189.965 206.220,201.530 214.932,202.220 214.210 C 202.389 214.033,209.641 203.889,218.336 191.667 C 227.032 179.444,234.275 169.361,234.433 169.259 C 234.969 168.914,256.375 138.729,256.753 137.787 C 259.245 131.564,252.588 125.289,246.481 128.107 M200.769 216.797 C 197.373 223.870,184.879 228.568,176.667 225.860 C 175.018 225.316,174.985 225.322,173.592 226.405 C 172.194 227.492,172.167 227.497,169.981 227.033 C 156.311 224.132,149.901 243.291,162.561 249.212 C 172.061 253.657,182.563 243.409,178.229 233.924 C 177.228 231.735,177.133 231.848,179.630 232.275 C 187.495 233.622,197.993 228.692,200.858 222.307 C 202.698 218.208,202.613 212.958,200.769 216.797 M230.419 227.058 C 221.204 228.914,217.792 240.074,224.415 246.696 C 231.756 254.037,244.196 248.894,244.196 238.519 C 244.196 231.255,237.449 225.642,230.419 227.058 M197.827 241.873 C 188.612 243.729,185.200 254.889,191.822 261.511 C 199.163 268.852,211.604 263.709,211.604 253.333 C 211.604 246.070,204.856 240.457,197.827 241.873 " stroke="none" fill="#b65f25" fill-rule="evenodd"></path><path id="path1" d="M189.444 120.579 C 127.815 128.952,98.622 201.508,137.339 250.079 C 176.534 299.247,256.148 285.263,275.897 225.741 C 282.077 207.116,281.130 179.937,274.080 173.568 C 270.643 170.463,271.418 170.584,253.333 170.323 C 244.328 170.193,236.606 169.924,235.824 169.712 C 234.195 169.270,235.075 168.305,228.126 178.148 C 225.609 181.713,218.751 191.363,212.886 199.593 L 202.222 214.556 202.222 216.655 C 202.222 226.375,189.650 234.776,178.859 232.267 L 177.533 231.958 178.388 234.035 C 183.262 245.883,168.115 255.941,159.050 246.876 C 150.562 238.388,159.487 223.169,170.668 227.067 C 171.691 227.424,171.999 227.341,173.493 226.314 L 175.170 225.160 177.307 225.808 C 185.249 228.215,196.493 224.055,200.385 217.271 C 201.944 214.552,202.003 214.643,195.820 210.324 C 192.721 208.160,190.203 206.150,190.225 205.858 C 190.247 205.566,197.205 195.612,205.687 183.738 L 221.110 162.150 219.635 160.474 C 213.893 153.951,212.274 148.959,211.910 136.667 C 211.458 121.357,207.035 118.190,189.444 120.579 M184.259 135.955 C 191.630 139.453,193.350 149.260,187.601 155.009 C 180.494 162.116,168.312 157.578,167.496 147.520 C 166.775 138.641,176.207 132.134,184.259 135.955 M157.653 162.999 C 166.644 167.293,166.307 179.777,157.087 183.998 C 147.843 188.230,137.695 178.083,141.927 168.839 C 144.855 162.444,151.401 160.013,157.653 162.999 M152.242 198.559 C 157.986 201.621,160.135 208.670,157.061 214.371 C 151.194 225.251,134.990 221.220,135.022 208.889 C 135.045 199.775,144.209 194.277,152.242 198.559 M258.908 198.559 C 264.653 201.621,266.802 208.670,263.728 214.371 C 257.861 225.251,241.657 221.220,241.689 208.889 C 241.712 199.775,250.876 194.277,258.908 198.559 M236.919 227.464 C 246.827 231.172,246.827 245.865,236.919 249.573 C 224.936 254.056,215.217 239.179,224.236 230.160 C 227.609 226.788,232.393 225.771,236.919 227.464 M204.326 242.279 C 214.235 245.986,214.235 260.680,204.326 264.387 C 198.165 266.693,191.183 263.639,188.946 257.660 C 185.314 247.953,194.620 238.648,204.326 242.279 " stroke="none" fill="#d9d9d1" fill-rule="evenodd"></path><path id="path2" d="M175.558 135.410 C 162.897 140.011,165.855 158.315,179.259 158.315 C 194.489 158.315,195.026 135.737,179.815 134.941 C 178.045 134.848,176.694 134.997,175.558 135.410 " stroke="none" fill="#aead63" fill-rule="evenodd"></path><path id="path3" d="M143.866 197.361 C 130.442 200.849,132.821 220.526,146.667 220.526 C 157.011 220.526,162.179 208.900,155.410 200.855 C 153.145 198.164,147.432 196.435,143.866 197.361 " stroke="none" fill="#649ccb" fill-rule="evenodd"></path><path id="path4" d="M266.434 141.024 C 265.749 141.469,259.561 149.006,259.163 149.880 C 257.929 152.585,261.734 155.368,264.011 153.426 C 266.699 151.133,271.111 145.071,271.111 143.670 C 271.111 141.328,268.359 139.772,266.434 141.024 M254.158 155.804 C 253.192 156.192,251.111 159.367,251.111 160.452 C 251.111 162.967,254.288 164.466,256.230 162.868 C 260.438 159.406,258.830 153.925,254.158 155.804 M150.453 161.871 C 142.962 163.366,138.846 171.532,142.175 178.294 C 146.546 187.172,158.640 187.172,163.010 178.294 C 167.130 169.925,159.580 160.049,150.453 161.871 M250.533 197.361 C 237.109 200.849,239.488 220.526,253.333 220.526 C 263.678 220.526,268.846 208.900,262.077 200.855 C 259.812 198.164,254.098 196.435,250.533 197.361 M224.054 230.278 L 222.778 231.667 224.167 230.390 C 225.459 229.202,225.726 228.889,225.443 228.889 C 225.381 228.889,224.756 229.514,224.054 230.278 M240.741 230.185 C 241.432 230.898,242.080 231.481,242.182 231.481 C 242.284 231.481,241.802 230.898,241.111 230.185 C 240.420 229.472,239.771 228.889,239.670 228.889 C 239.568 228.889,240.050 229.472,240.741 230.185 M224.074 246.852 C 224.765 247.565,225.414 248.148,225.516 248.148 C 225.618 248.148,225.135 247.565,224.444 246.852 C 223.753 246.139,223.105 245.556,223.003 245.556 C 222.901 245.556,223.383 246.139,224.074 246.852 M240.721 246.944 L 239.444 248.333 240.833 247.057 C 241.597 246.355,242.222 245.730,242.222 245.668 C 242.222 245.385,241.909 245.652,240.721 246.944 " stroke="none" fill="#f6dd8b" fill-rule="evenodd"></path></g></svg>